<!-- Created with Inkscape (http://www.inkscape.org/) -->
<!-- License: Creative Commons -->
<svg width="38" height="39" xmlns="http://www.w3.org/2000/svg"><defs><style>*{fill:#fff}</style></defs><g id="Page-1" stroke="none" stroke-width="1" fill="none" fill-rule="evenodd"><g id="rpg_dice" transform="translate(0 -13)" fill="#000" fill-rule="nonzero"><path d="M1.666 50.75c-.445-.688-.959-9.012-1.142-18.5-.306-15.879-.19-17.304 1.472-17.942.992-.38 8.513-.718 16.712-.75l14.908-.058 1.996 2.657c1.883 2.506 1.954 3.597 1.264 19.25L36.144 52H19.309C6.94 52 2.26 51.668 1.666 50.75zm16.69-1.703c1.334-.07 1.334-.185 0-1.047-1.975-1.277-5.288-1.277-4.5 0 .34.55.19 1-.333 1-.524 0-1.176-.583-1.45-1.295-.65-1.697 2.96-2.006 6.55-.562 2.19.881 2.529 1.399 1.627 2.485-.947 1.142.13 1.372 6.425 1.372 4.16 0 7.782-.353 8.048-.784.266-.43.81-7.907 1.208-16.614.698-15.253.655-15.812-1.175-15.29-1.045.3-4.15.853-6.9 1.231-4.917.677-5.049.787-8 6.704l-3 6.017 8.528 8.618L33.91 49.5l-8.048-7.75C21.436 37.487 17.03 34 16.07 34c-2.047 0-12.022 5.46-13.727 7.515-.73.88-.93 2.86-.53 5.234l.645 3.819 7.2-.722c3.958-.397 7.873-.757 8.698-.8zm1.5-3.532c-1.65-.727-3.224-1.187-3.5-1.023-.274.164-1.16-.415-1.967-1.287-1.305-1.41-1.263-1.508.377-.878 1.014.39 2.386.258 3.048-.291.852-.708 2.038-.129 4.06 1.982 3.09 3.225 2.648 3.553-2.017 1.497zm.51-2.004c-.68-.819-1.718-1.191-2.306-.827-.648.4-.307.96.863 1.418 2.76 1.08 2.812 1.06 1.443-.591zm5.55-5.446c-1.227-1.356-1.594-2.79-1.159-4.525.774-3.082 2.005-3.227 3.939-.467.828 1.183 1.719 1.642 2.073 1.07a1.191 1.191 0 0 0-.396-1.633c-1.878-1.16-1.147-4.51.984-4.51 1.119 0 2 .667 2 1.514 0 .832.55 2.396 1.225 3.475 1.643 2.631-.336 4.994-2.606 3.11-1.205-1-1.523-.82-1.792 1.014-.44 2.995-2.087 3.362-4.269.952zm3.44-.63c0-2.385-1.978-5.566-3.05-4.904-1.327.82-1.184 3.834.25 5.269 1.653 1.652 2.8 1.502 2.8-.366zm5-2.935c0-.825-.423-1.5-.94-1.5-1.261 0-2.164 1.562-1.365 2.36 1.126 1.127 2.306.686 2.306-.86zm-2-4c0-.825-.45-1.5-1-1.5s-1 .675-1 1.5.45 1.5 1 1.5 1-.675 1-1.5zM9.82 35.557c4.867-2.721 6.72-4.477 8.847-8.385 1.48-2.718 2.69-5.208 2.69-5.532 0-1.171-5.809-3.552-12.396-5.08-3.7-.858-6.925-1.56-7.166-1.56-.241 0-.438 5.4-.438 12 0 8.4.346 12 1.154 12 .634 0 3.924-1.55 7.31-3.443zm-2.563-5.19c.605-.294 1.1-1.226 1.1-2.073 0-1.234-.289-1.3-1.457-.33-1.64 1.36-3.543.6-3.543-1.416 0-2.24 3.308-2.846 4.752-.872 1.562 2.136 1.268 4.55-.602 4.941-.743.156-.855.043-.25-.25zm-.088-4.304c.25-.75-.125-1.125-.875-.875-.722.24-1.51 1.028-1.75 1.75-.25.75.125 1.125.875.875.722-.241 1.51-1.029 1.75-1.75zm2.163-2.11c-.857-1.6-.867-2.461-.04-3.288 1.523-1.524 4.565.428 4.565 2.93 0 2.686-3.147 2.934-4.526.358zm4.025-.484c0-1.513-2.637-3.166-3.567-2.236-.264.265-.197 1.22.15 2.124.796 2.073 3.417 2.159 3.417.112z" id="d00"/></g></g></svg>
