<!-- Created with Inkscape (http://www.inkscape.org/) -->
<!-- License: Creative Commons -->
<svg width="41" height="41" xmlns="http://www.w3.org/2000/svg"><defs><style>*{fill:#fff}</style></defs><g id="Page-1" stroke="none" stroke-width="1" fill="none" fill-rule="evenodd"><g id="rpg_dice" transform="translate(-52 -11)" fill="#000" fill-rule="nonzero"><path d="M63.713 51.256c-9.092-.326-9.15-.345-10.383-3.32-.917-2.214-1.053-7.077-.524-18.714.393-8.647 1.015-16.017 1.383-16.377.367-.36 8.094-.973 17.17-1.36 15.39-.658 16.664-.576 18.88 1.218l2.376 1.924-.738 18.687L91.14 52l-9.142-.208c-5.028-.114-13.256-.355-18.285-.536zm25.994-1.013c.924-1.496 1.92-35.243 1.038-35.202-.488.023-2.91 1.035-5.38 2.25-3.587 1.765-5.041 3.315-7.232 7.709-1.509 3.025-2.75 5.97-2.76 6.543-.009.573 3.134 4.766 6.984 9.316 3.85 4.55 7 8.544 7 8.874 0 .33-.168.413-.373.184-.205-.23-3.406-4.017-7.114-8.417-3.707-4.4-7.11-8.14-7.562-8.312-.452-.171-4.113 1.23-8.136 3.114-4.024 1.884-8.553 3.927-10.065 4.54-1.895.768-2.75 1.84-2.75 3.445 0 4.616 1.869 5.632 11 5.981 18.487.706 24.901.7 25.35-.025zm-16.35-2.316c0-.739-.941-.908-2.655-.477-1.664.417-2.937.211-3.408-.551-1.06-1.717-.019-3.899 1.86-3.899 1.318 0 1.275.227-.258 1.347-2.371 1.735-.382 3.174 2.36 1.707 1.42-.76 2.06-.705 2.39.204.353.977.927.959 2.685-.082 1.23-.728 1.938-.843 1.575-.255-1.117 1.807-4.55 3.32-4.55 2.006zm11.185-15.003l.185-6.424.37 5.354c.363 5.233.416 5.315 2.316 3.595 2.869-2.596 2.366-1.195-.556 1.551l-2.5 2.349.185-6.425zm-22.185 4.394c1.925-.778 5.015-2.406 6.868-3.617 3.639-2.378 11.522-13.714 10.348-14.88-.738-.732-24.34-6.061-24.745-5.586-.124.146-.548 6.247-.942 13.557l-.715 13.293 2.843-.676c1.563-.371 4.418-1.312 6.343-2.09zM60.16 24.8c-1.906-2.938-1.263-4.8 1.658-4.8 2.76 0 4.832 2.233 4.361 4.702-.52 2.73-4.272 2.79-6.02.098zm5.197-.831c0-2.25-2.175-3.5-4.523-2.599-1.268.487-1.311.923-.26 2.607 1.666 2.668 4.783 2.662 4.783-.009z" id="d10"/></g></g></svg>
