<!-- Created with Inkscape (http://www.inkscape.org/) -->
<!-- License: Creative Commons -->
<svg width="52" height="45" xmlns="http://www.w3.org/2000/svg"><defs><style>*{fill:#fff}</style></defs><g id="Page-1" stroke="none" stroke-width="1" fill="none" fill-rule="evenodd"><g id="rpg_dice" transform="translate(-101 -7)" fill="#000" fill-rule="nonzero"><path d="M115.516 50.147c-4.26-1.617-7.58-5.569-6.411-7.634.315-.557.199-.674-.257-.26-.457.414-2.247-1.749-3.98-4.806l-3.15-5.558 4.948-9.695c2.722-5.331 6.1-10.931 7.507-12.444 2.44-2.623 2.975-2.746 11.62-2.673 14.11.12 15.793.94 21.713 10.571l5.007 8.148-1.699 3.352c-.934 1.844-4.167 7.74-7.183 13.102L138.146 52 129 51.897c-5.839-.065-10.713-.698-13.485-1.75zm24.683-3.405c1.288-2.333 4.371-7.964 6.852-12.513l4.51-8.27-4.102-6.73c-2.256-3.7-4.467-7.293-4.914-7.983-.64-.99-2.03-1.01-6.582-.096-5.717 1.148-5.766 1.188-5.241 4.255.29 1.702.818 5.59 1.171 8.64l.643 5.544 6.354 3.429c3.494 1.886 6.197 3.585 6.006 3.776-.191.191-3.428-1.323-7.194-3.366l-6.845-3.713-6.626 4.176c-6.494 4.094-6.64 4.28-7.313 9.36-.929 7 .224 7.751 11.88 7.74l9.059-.007 2.342-4.242zm-13.211-.53c-.306-.495-.102-2.545.453-4.556.775-2.805 1.523-3.652 3.213-3.64 3.214.022 5.133 1.49 4.08 3.122-.482.75-.877 2.262-.877 3.362 0 1.513-.77 2.075-3.156 2.306-1.736.169-3.407-.098-3.713-.593zm6.143-1.39c-.217-.649-1.167-1.661-2.112-2.25-1.305-.814-1.95-.71-2.675.428-1.554 2.437-1.16 3 2.096 3 1.923 0 2.935-.444 2.69-1.179zm.726-4.822c-.34-.55-1.492-1-2.56-1-1.067 0-1.94.45-1.94 1s1.151 1 2.559 1c1.451 0 2.291-.433 1.94-1zm5.155-11.829c-1.876-2.072-2.074-3.985-.641-6.171.709-1.081.82-.647.398 1.556-.695 3.632 1.425 5.948 4.54 4.96 2.644-.84 2.589-2.3-.202-5.333l-2.25-2.446 2.26 1.38c3.153 1.921 3.916 4.916 1.671 6.557-2.446 1.788-3.81 1.67-5.776-.503zm.485-10.318c-1.848-.532-3.172-1.154-2.944-1.383.505-.505 7.804 1.438 7.804 2.077 0 .59-.794.476-4.86-.694zm-12.833 13.593l4.807-2.946-.584-4.5a520.688 520.688 0 0 0-1.145-8.25l-.561-3.75h-16.386l-3.673 7.423-3.673 7.423 6.169 5.051c5.513 4.516 6.384 4.916 8.203 3.773 1.12-.703 4.199-2.604 6.843-4.224zm-12.119-4.995c-3.012-6.2-2.676-7.068.427-1.103 1.387 2.666 2.351 5.019 2.142 5.228-.209.209-1.365-1.647-2.569-4.125zm5.337 1.385c.393-1.285 1.341-3.868 2.108-5.74 1.768-4.319 1.05-5.004-2.948-2.813l-3.185 1.746 2.36-2.015c4.55-3.882 6.934-2.16 4.633 3.348-2.135 5.11-1.885 5.916 1.257 4.056 2.587-1.533 2.632-1.53.75.05-1.1.923-2.83 2.134-3.845 2.691-1.618.888-1.757.726-1.13-1.323z" id="d12"/></g></g></svg>
