<!-- Created with Inkscape (http://www.inkscape.org/) -->
<!-- License: Creative Commons -->
<svg width="59" height="53" xmlns="http://www.w3.org/2000/svg"><defs><style>*{fill:#fff}</style></defs><g id="Page-1" stroke="none" stroke-width="1" fill="none" fill-rule="evenodd"><g id="rpg_dice" transform="translate(-161)" fill="#000" fill-rule="nonzero"><path d="M184.537 49.655l-12.32-3.155-5.45-13-5.45-13 5.27-4.802c2.898-2.642 8.017-7.252 11.374-10.245l6.105-5.442 11.332 1.494C201.63 2.327 207.059 3 207.462 3c.403 0 3.23 6.37 6.281 14.154l5.55 14.155-10.08 10.845c-5.543 5.966-10.592 10.803-11.218 10.75-.626-.052-6.682-1.514-13.458-3.25zm15.018.876c.282.283 4.323-3.658 8.979-8.758 8.437-9.242 11.214-12.75 9.015-11.392-.615.38-3.384-.458-6.155-1.862-2.77-1.404-5.071-2.433-5.113-2.286-.042.147-1.578 5.667-3.414 12.267-1.837 6.6-3.367 11.325-3.402 10.5-.034-.825 1.285-6.45 2.933-12.5l2.996-11-2.823-2.5c-1.553-1.375-7.055-5.537-12.227-9.25-5.172-3.712-9.075-6.75-8.673-6.75.403 0 5.71 3.636 11.795 8.08s11.3 7.845 11.587 7.557c.756-.755 2.526-17.748 1.913-18.361-1.03-1.03-24.98 1.666-26.145 2.944-.642.704-1.702 5.78-2.356 11.28-.654 5.5-1.427 11.216-1.718 12.703l-.529 2.704 13.299-4.46c7.314-2.454 13.673-4.336 14.132-4.183.458.153-5.27 2.275-12.73 4.715-7.46 2.441-13.562 4.745-13.562 5.121 0 .376 4.491 4.04 9.981 8.144 5.49 4.103 9.653 7.849 9.25 8.325-.402.476-.015.321.86-.343.876-.665 1.824-.977 2.107-.695zm-10.063-11.236c-1.27-2.637-1.729-4.232-1.021-3.545.707.688 2.096 1.25 3.086 1.25 1.868 0 2.235 2.042.95 5.295-.567 1.438-1.166.843-3.015-3zm2.469-1.024c-1.017-1.017-1.855.514-1.021 1.863.63 1.02.865 1.02 1.204.004.232-.695.15-1.535-.183-1.867zm4.507-.382c-.616-1.767-.945-3.388-.731-3.602.213-.214.893 1.057 1.509 2.824.616 1.767.945 3.388.73 3.602-.213.214-.892-1.057-1.508-2.824zm10.29-.635c1.46-1.724 2.216-1.987 3.25-1.128.742.615 1.349 1.379 1.349 1.696 0 .318-.534.044-1.187-.608-.915-.915-1.658-.79-3.25.55-2.058 1.732-2.058 1.73-.162-.51zm-23.401-8.189c0-.514.453-2.127 1.007-3.584 1.23-3.234.38-5.047-1.596-3.407-.853.708-1.411.77-1.411.155 0-1.434 2.435-2.196 3.976-1.244 1.016.628 1.05 1.501.159 4.057-1.469 4.214-1.47 4.208.799 2.993 2.954-1.58 3.913-1.163 1.066.465-2.958 1.69-4 1.838-4 .565zm5.484-6.094c-2.603-5.036 1.008-7.202 4.11-2.466 1.324 2.019 1.401 2.795.402 4-1.81 2.181-2.756 1.86-4.512-1.534zm4.003 1.05c.874-1.414-1.298-5.021-3.022-5.021-1.767 0-1.785.205-.305 3.453 1.222 2.681 2.32 3.198 3.327 1.568zm3.485-10.771l-2.472-1.75 3.922-.5c4.165-.531 5.9-2.518 2.883-3.3-1.567-.406-1.582-.483-.114-.584.93-.064 1.981.354 2.336.928C203.9 9.689 201.365 12 198.544 12c-2.474 0-2.497.055-.628 1.468 2.747 2.078 1.395 1.892-1.587-.218zm-.972 37.372c0-.66-18.912-14.622-19.807-14.622-.47 0-1.323 2.04-1.894 4.535-1.156 5.051-.724 5.6 5.45 6.926 2.091.449 3.25.313 3.25-.382 0-.593-.787-1.115-1.75-1.158-1.001-.045-1.226-.29-.525-.575.673-.272 2.236.213 3.472 1.08 1.551 1.086 1.792 1.604.776 1.67-.81.053.778.674 3.528 1.381 5.5 1.414 7.5 1.72 7.5 1.145zm-17.947-31.38c.937-7.008 1.557-12.906 1.378-13.106-.18-.2-3.928 2.93-8.33 6.956-5.491 5.024-7.707 7.678-7.06 8.457.517.624.608 1.503.2 1.953-.408.45-.254.542.34.203.596-.338 3.268 1.604 5.94 4.317 2.672 2.712 5.077 4.713 5.344 4.446.267-.267 1.252-6.219 2.188-13.227zm-7.803 3.675c-2.999-1.136-2.85-3.323.325-4.77 2.986-1.36 4.425-.779 4.425 1.79 0 2.656-2.111 3.98-4.75 2.98zm3.68-3.226c-.068-2.112-.102-2.12-.93-.191-1.183 2.752-1.183 3.731 0 3 .55-.34.968-1.604.93-2.809zm-2.93.75c0-.857-.45-1.28-1-.941-.55.34-1 1.041-1 1.559s.45.941 1 .941 1-.702 1-1.559z" id="d20"/></g></g></svg>
