<!-- Created with Inkscape (http://www.inkscape.org/) -->
<!-- License: Creative Commons -->
<svg width="56" height="53" xmlns="http://www.w3.org/2000/svg"><defs><style>*{fill:#fff}</style></defs><g id="Page-1" stroke="none" stroke-width="1" fill="none" fill-rule="evenodd"><g id="rpg_dice" transform="translate(-10 -59)" fill="#000" fill-rule="nonzero"><path d="M38.357 109.247a2525.027 2525.027 0 0 0-17.213-6.68l-10.713-4.113 14.54-18.977C32.968 69.04 39.86 60.139 40.285 59.699c.574-.594 19.253 28.032 25.414 38.947.4.708-3.292 3.477-9.666 7.25-5.673 3.357-10.508 6.062-10.745 6.01-.237-.051-3.356-1.248-6.931-2.659zm21.719-6.756l5.219-3.14L53.66 80.675c-6.4-10.272-11.763-18.548-11.92-18.392-.156.156.584 10.619 1.643 23.25 1.06 12.632 1.937 23.572 1.95 24.312.024 1.345 1.541.588 14.743-7.354zm-5.158-4.241c-.361-1.513-.91-3.65-1.221-4.75-.385-1.364-.236-1.682.47-1 1.094 1.058 2.766 8.5 1.91 8.5-.277 0-.799-1.237-1.16-2.75zm-8.897-8.425c-.312-1.196-.106-2.883.46-3.75.89-1.366.954-1.343.483.175-.72 2.315.328 4.908 1.652 4.09.613-.38.753-.169.336.505-1.105 1.789-2.306 1.371-2.93-1.02zm7.443-1.196c-.724-.872-.828-2.209-.287-3.671.616-1.667 1.069-1.947 1.643-1.017.464.75.247 1.62-.52 2.095-1.083.669-1.084 1.09-.007 2.388.72.867 1.084 1.576.809 1.576s-1.012-.617-1.638-1.371zm-9.109 21.121c0-.138-.9-11.05-1.998-24.25-1.099-13.2-1.998-24.162-1.999-24.36 0-.198-3.826 4.611-8.501 10.688-8.267 10.743-9.73 13.05-7.346 11.577.721-.446.883-.274.431.457-.398.644-1.118.927-1.601.628-1.17-.723-11.246 12.654-10.256 13.616 1.431 1.391 31.275 12.504 31.27 11.644zm-15.92-7.433c-.045-1.258-.925-2.45-2.078-2.817-2.2-.698-1.822-1.901 2.045-6.5l2.102-2.5-.45 4.75c-.297 3.119-.065 4.755.676 4.765.811.011.819.221.027.75-.605.404-1.357 1.41-1.671 2.235-.39 1.024-.596.807-.65-.683zm.768-6.347c.302-2.073.143-2.206-1.25-1.05-1.887 1.566-2.145 4.428-.346 3.835.687-.226 1.405-1.48 1.596-2.785zm-2.265-7.22c-.25-1.237-.71-3.46-1.022-4.939-.312-1.479-.115-2.968.437-3.309.617-.381 1.004 1.194 1.004 4.094v4.714l2.154-1.905 2.155-1.905-1.77 2.75c-2.143 3.33-2.376 3.37-2.958.5zm7.919-1.268c1.1-.896 2.9-2.07 4-2.61 2-.982 2-.982 0 .646-1.1.896-2.9 2.07-4 2.61-2 .982-2 .982 0-.646z" id="d4"/></g></g></svg>
