<!-- Created with Inkscape (http://www.inkscape.org/) -->
<!-- License: Creative Commons -->
<svg width="46" height="43" xmlns="http://www.w3.org/2000/svg"><defs><style>*{fill:#fff}</style></defs><g id="Page-1" stroke="none" stroke-width="1" fill="none" fill-rule="evenodd"><g id="rpg_dice" transform="translate(-88 -69)" fill="#000" fill-rule="nonzero"><path d="M97.986 107.752l-9.87-4.074.72-15.089c.396-8.299.787-15.16.87-15.247.083-.087 5.155-.893 11.27-1.79l11.12-1.633 10.656 2.67 10.655 2.67-.275 15.12-.275 15.121-12.5 3.19c-6.875 1.754-12.5 3.177-12.5 3.163 0-.015-4.442-1.86-9.87-4.1zm9.648-27.817c-.428-.395-4.443-1.826-8.922-3.18l-8.146-2.462-.721 13.937c-.397 7.665-.332 14.312.145 14.772.477.46 4.692 2.36 9.367 4.226l8.5 3.39.277-14.982c.152-8.24-.073-15.305-.5-15.7zM95.95 98.83c-3.148-4.495-1.22-13.904 2.817-13.751 1.431.054 1.617.248.59.615-1.828.653-4 3.275-4 4.827 0 .626.993 1.102 2.207 1.058 4.126-.148 5.054 7.834 1.065 9.164-.597.199-1.803-.662-2.679-1.913zm4.046-.332c.895-2.334-.508-6.498-2.19-6.498-2.134 0-2.91 2.693-1.602 5.564 1.255 2.754 2.934 3.168 3.792.934zm21.342 8.918l11.019-2.584v-28.87l-2.25.496c-1.238.273-5.175.971-8.75 1.552-3.575.58-7.738 1.302-9.25 1.602l-2.75.547v14.92c0 8.207.216 14.921.481 14.921s5.44-1.163 11.5-2.584zm-2.31-8.295c2.132-1.782 2.137-1.841.25-3.457-2.329-1.993-2.475-4.967-.35-7.093 1.813-1.813 3.312-1.958 5.429-.525 1.131.765.867.869-1.075.42-4.893-1.13-6.737 4.823-2.195 7.087 1.692.843 1.937 1.38 1.042 2.275-.896.896-.595 1.195 1.278 1.272l2.45.1-2.5.8c-1.375.44-3.4.83-4.5.867-1.933.064-1.927.005.17-1.746z" id="d6"/></g></g></svg>
