<!-- Created with Inkscape (http://www.inkscape.org/) -->
<!-- License: Creative Commons -->
<svg width="43" height="39" xmlns="http://www.w3.org/2000/svg"><defs><style>*{fill:#fff}</style></defs><g id="Page-1" stroke="none" stroke-width="1" fill="none" fill-rule="evenodd"><g id="rpg_dice" transform="translate(-154 -72)" fill="#000" fill-rule="nonzero"><path d="M159.983 107.348c-1.712-8.463-5.71-32.594-5.44-32.84.172-.157 8.034-.61 17.47-1.007l17.156-.722 1.177 5.672c.648 3.119.92 6.342.606 7.162-.315.82-.187 1.253.284.962.47-.291 1.623 3.398 2.561 8.198.938 4.8 1.933 9.689 2.212 10.864.557 2.343 2.909 1.994-26.801 3.98l-8.65.58-.575-2.849zm26.694.077c7.702-.538 8.73-.826 8.105-2.27-.393-.91-.746-2.41-.784-3.332-.039-.922-.336-1.512-.66-1.311-.325.2-2.732-3.945-5.348-9.212-2.627-5.287-5.13-9.178-5.588-8.688-.458.488-4.978 5.838-10.045 11.888-9.592 11.452-11.807 13.911-10.605 11.777.38-.673 4.945-6.267 10.147-12.431 5.202-6.165 9.458-11.496 9.458-11.847 0-.351-4.555-1.714-10.123-3.028-5.567-1.314-9.666-2.541-9.11-2.727.557-.186 5.449.789 10.87 2.166l9.857 2.503 2.217-2.707c3.707-4.526 2.935-5.21-3.057-2.706-4.478 1.87-6.23 1.833-2.154-.046l3-1.384-3.254.303c-1.79.166-3.44.487-3.667.714-.226.227-4.97.37-10.541.318l-10.13-.095.513 2.595c.282 1.427 1.437 7.995 2.569 14.595 1.13 6.6 2.29 13.051 2.574 14.336.573 2.59-2.031 2.531 25.756.59zm.606-3.075c.809-1.676.702-2.279-.482-2.733-.856-.328-1.769.065-2.09.9-.692 1.804-4.735 1.96-6.093.233-1.257-1.598.753-6.593 2.426-6.027.786.266.52 1.07-.786 2.376-1.086 1.086-1.706 2.408-1.379 2.937.91 1.473 4.276 1.147 5.199-.502.52-.93 1.637-1.253 3.05-.884 2.64.69 2.748 1.32.674 3.909-1.508 1.881-1.524 1.874-.519-.21zm-23.217-10.974c-.39-.39-.71-1.31-.71-2.043 0-.733-.9-2.233-2-3.333-2.534-2.535-2.52-3.651.065-5.034 2.708-1.45 5.247.477 4.351 3.3-.368 1.159-.23 1.738.33 1.391.528-.326 1.814.041 2.857.816 1.512 1.123 1.674 1.778.796 3.218-1.16 1.904-4.486 2.888-5.69 1.685zm4.968-1.977c.7-1.824-1.332-3.469-3.337-2.7-.737.283-1.34 1.367-1.34 2.408 0 2.363 3.791 2.6 4.677.292zm-4.252-5.066c.352-.917.195-2.113-.35-2.658-1.345-1.345-4.129 1.021-3.409 2.898.746 1.944 2.976 1.801 3.76-.24z" id="d8"/></g></g></svg>
